<?xml version="1.0" standalone="no"?>
<!DOCTYPE svg PUBLIC "-//W3C//DTD SVG 20010904//EN"
 "http://www.w3.org/TR/2001/REC-SVG-20010904/DTD/svg10.dtd">
<svg version="1.0" xmlns="http://www.w3.org/2000/svg"
 width="256.000000pt" height="256.000000pt" viewBox="0 0 256.000000 256.000000"
 preserveAspectRatio="xMidYMid meet">
<metadata>
Created by potrace 1.16, written by Peter Selinger 2001-2019
</metadata>
<g transform="translate(0.000000,256.000000) scale(0.100000,-0.100000)"
fill="#000000" stroke="none">
<path d="M1135 2520 c-211 -10 -341 -51 -535 -169 -141 -85 -167 -112 -282
-283 -56 -84 -85 -191 -103 -384 -22 -230 -38 -1137 -24 -1304 18 -203 15
-190 70 -248 l51 -52 373 0 372 0 67 -30 c48 -22 89 -32 145 -37 101 -8 142 1
181 37 l32 30 297 0 c285 0 297 1 336 22 22 12 55 38 73 59 28 32 34 47 38
101 3 47 15 84 45 146 22 46 42 97 46 115 3 18 16 73 28 122 13 50 26 124 30
166 7 75 7 77 -23 110 -29 33 -31 33 -71 23 -23 -6 -42 -11 -43 -10 -1 1 -4
143 -8 316 -7 307 -28 578 -51 649 -65 203 -192 359 -378 465 -172 99 -319
146 -455 146 -36 0 -47 3 -36 10 12 8 11 9 -5 8 -11 -1 -87 -5 -170 -8z m543
-848 c29 -11 75 -37 102 -56 28 -20 54 -36 58 -36 10 0 67 -61 108 -115 16
-22 46 -75 66 -117 105 -223 106 -396 3 -611 -65 -135 -148 -224 -236 -254
-80 -27 -243 -48 -314 -39 -89 10 -163 33 -232 72 -83 46 -135 93 -182 164
-20 30 -39 59 -42 64 -4 4 -27 -3 -51 -18 -25 -14 -50 -26 -56 -26 -7 0 -54
-18 -105 -39 -50 -22 -105 -42 -122 -46 -29 -5 -29 -5 -5 5 13 6 27 15 30 19
14 22 174 86 190 76 6 -4 25 7 42 24 28 27 30 34 26 76 -3 25 -8 48 -10 51 -7
7 -124 -44 -181 -79 -26 -16 -71 -38 -99 -48 -67 -26 -83 -42 -62 -63 8 -9 11
-16 5 -16 -7 0 -7 -8 -1 -25 5 -14 7 -25 5 -25 -14 0 -55 146 -47 169 6 18
330 172 354 169 18 -3 19 5 22 97 3 78 10 118 33 185 77 227 247 413 416 456
72 19 217 11 285 -14z"/>
<path d="M1703 1479 c-8 -8 -13 -43 -13 -96 0 -71 6 -103 41 -209 43 -132 74
-181 128 -204 44 -18 71 -9 92 30 23 42 24 97 3 197 -36 174 -104 275 -194
288 -31 4 -49 2 -57 -6z"/>
<path d="M1325 1413 c-74 -18 -121 -148 -113 -309 8 -169 78 -241 210 -219 36
5 49 14 82 57 l38 51 1 106 c1 138 -20 196 -98 270 -53 50 -69 56 -120 44z"/>
<path d="M1651 736 c-49 -52 -36 -156 19 -156 42 0 72 33 77 85 10 83 -46 124
-96 71z"/>
</g>
</svg>
